<svg xmlns="http://www.w3.org/2000/svg" viewBox="0 0 300 300"><defs><style>.cls-1{fill:#2b7771;}</style></defs><g id="Livello_2" data-name="Livello 2"><g id="Livello_1-2" data-name="Livello 1"><polygon class="cls-1" points="105.03 0 0 0 0 300 35.58 300 105.03 0"/><path class="cls-1" d="M190.86,265.49a82.27,82.27,0,0,0,25.66-21.57A105.16,105.16,0,0,0,234,211a131.69,131.69,0,0,0,6.36-41.78q0-23.14-8-38.36t-21.57-22.71q-13.62-7.48-30.87-7.49a69.74,69.74,0,0,0-33.15,8,79.93,79.93,0,0,0-25.88,22,103.06,103.06,0,0,0-16.8,33.6,146.78,146.78,0,0,0-5.9,42.68q0,29.52,15.66,47.9T160,273.21A64.8,64.8,0,0,0,190.86,265.49Z"/><path class="cls-1" d="M141.33,0,116,109.3q10.44-17.25,30.42-28.6a87.52,87.52,0,0,1,44-11.36q24.53,0,44,11.81t30.65,34.28q11.11,22.47,11.13,54.71,0,28.61-8.86,52.9a137.88,137.88,0,0,1-24.52,42.68,111.91,111.91,0,0,1-36.78,28.6A100.23,100.23,0,0,1,191.49,300H300V0Z"/><path class="cls-1" d="M97.33,276.84a71.52,71.52,0,0,1-13.62-28.15L71.9,300h59a75.93,75.93,0,0,1-7.45-2.95A70.09,70.09,0,0,1,97.33,276.84Z"/></g></g></svg>